<?xml version="1.0" standalone="no"?>
<!DOCTYPE svg PUBLIC "-//W3C//DTD SVG 20010904//EN"
 "http://www.w3.org/TR/2001/REC-SVG-20010904/DTD/svg10.dtd">
<svg version="1.0" xmlns="http://www.w3.org/2000/svg"
 width="240.000000pt" height="240.000000pt" viewBox="0 0 240.000000 240.000000"
 preserveAspectRatio="xMidYMid meet">
<metadata>
Created by potrace 1.11, written by Peter Selinger 2001-2013
</metadata>
<g transform="translate(0.000000,240.000000) scale(0.100000,-0.100000)"
fill="#000000" stroke="none">
<path d="M995 2285 c-188 -32 -256 -54 -425 -137 -290 -143 -491 -392 -555
-688 -20 -91 -13 -282 13 -382 25 -93 88 -225 139 -293 40 -52 44 -73 29 -160
-18 -110 -76 -280 -145 -429 -23 -49 -40 -90 -39 -92 3 -2 30 3 128 22 160 32
453 126 579 185 94 44 78 43 226 13 113 -23 487 -22 525 1 4 2 22 7 41 10 19
3 52 11 74 17 22 6 45 12 50 13 29 6 176 70 234 102 226 124 420 348 486 563
36 117 44 174 40 290 -5 151 -17 210 -66 317 -10 24 -19 46 -19 49 0 16 -112
175 -160 227 -154 169 -439 319 -687 363 -13 2 -35 7 -50 10 -60 13 -339 12
-418 -1z m445 -209 c385 -84 652 -308 739 -619 23 -83 22 -245 -3 -330 -80
-285 -348 -511 -701 -592 -193 -45 -377 -41 -615 12 -97 22 -90 22 -130 -3
-99 -61 -362 -166 -377 -150 -3 2 2 26 10 53 30 94 40 157 41 258 l1 102 -46
59 c-100 129 -146 245 -156 389 -23 362 253 687 685 804 41 11 99 23 130 27
32 3 58 8 60 9 11 10 299 -5 362 -19z"/>
</g>
</svg>
