<svg xmlns="http://www.w3.org/2000/svg" viewBox="0 0 777 100" width="1036" height="100pt"><path fill="currentColor" d="M103.73.91c28.89-.2 57.82-.09 86.7-.05.86 3.89.92 7.03 0 10.92-28.91.17-57.85.15-86.77.01-.78-3.66-.95-7.24.07-10.88zM221.73.91C228.48.67 235.25.9 242 .79c2.51.03 5.23-.18 7.67.46.96 3.29 1.07 7.08-.11 10.33-9.21.66-18.65.2-27.9.21-.78-3.66-.95-7.24.07-10.88zM294.95.9c9.31-.01 18.75-.39 28.03.16 1.37 3.5.85 7.1.22 10.69-9.38.17-18.87.29-28.25-.07-.59-3.76-.59-7.02 0-10.78zM338.75 1.11c6.41-.26 12.84-.03 19.25-.12 2.83.05 5.82-.22 8.6.34 1.07 3.26 1.12 7.1 0 10.35-2.12.49-4.44.38-6.6.41-7.1-.06-14.19.01-21.29-.06-.83-3.67-1.04-7.26.04-10.92zM461 .98c26.72.13 53.47-.16 80.18.15.79 3.8.79 6.92.02 10.73-5.08.31-10.11.18-15.2.2-21 .01-42-.02-63 .02-2.82-.04-5.81.19-8.58-.39-1.06-3.26-1.05-7.12-.01-10.39 2.13-.42 4.42-.31 6.59-.32zM556.73.91C563.48.67 570.25.9 577 .79c2.51.03 5.23-.18 7.67.46.96 3.29 1.07 7.08-.11 10.33-9.21.66-18.65.2-27.9.21-.78-3.66-.95-7.24.07-10.88zM629.94.9c9.32-.01 18.75-.39 28.04.16 1.37 3.5.85 7.1.22 10.69-9.38.17-18.87.29-28.25-.07-.59-3.76-.59-7.02-.01-10.78zM704.12 1.13c1.63-.32 3.23-.33 4.88-.34 11 .04 22.01.03 33.01 0 1.6.02 3.14.03 4.7.42 1.04 3.28 1.12 7.14-.1 10.39-3.8.57-7.77.19-11.61.28-10.36-.1-20.75.2-31.1-.17-.48-3.56-.99-7.1.22-10.58zM16.14 16.26c4.34-.54 8.82-.22 13.19-.17.95 3.98.95 6.97-.02 10.94-4.48.05-8.94.12-13.41-.2-.49-3.6-1-7.05.24-10.57zM46.09 16.23c3.4-.43 9.16-.43 12.54.07 1.11 3.25 1.16 7.15.01 10.39-3.68.61-9.52.63-13.19-.03-1.01-3.24-1-6.99-.04-10.25l.68-.18zM103.69 15.63c9.31-.25 18.68-.17 27.99-.02.65 3.49 1.32 7.38-.24 10.74-9.21.49-18.56.15-27.8.14-.74-3.66-.91-7.22.05-10.86zM177.23 15.62c9.3-.22 18.69-.18 28 0 .73 3.82.75 7.01-.01 10.83-9.35.18-18.81.21-28.15-.02-.72-3.63-.95-7.22.16-10.81zM221.69 15.63c9.31-.25 18.68-.17 27.99-.02.65 3.49 1.32 7.38-.24 10.73-9.21.5-18.56.16-27.8.15-.74-3.66-.91-7.22.05-10.86zM295.23 15.62c9.3-.22 18.69-.18 28 0 .73 3.82.75 7.01-.01 10.83-9.35.18-18.81.21-28.15-.02-.72-3.63-.95-7.22.16-10.81zM338.75 16.11c6.41-.26 12.84-.03 19.25-.12 2.83.04 5.82-.22 8.6.34 1.07 3.26 1.12 7.1 0 10.35-2.12.49-4.44.38-6.6.41-7.1-.06-14.19.01-21.29-.06-.83-3.67-1.04-7.26.04-10.92zM483.94 16.18c5.33-.43 10.72-.07 16.06-.18 3.84.09 7.83-.31 11.63.3 1.12 3.25 1.16 7.15.01 10.4-9.18.83-18.65.16-27.89.33-.7-3.52-1.3-7.44.19-10.85zM556.69 15.63c14.23-.25 28.5-.17 42.73-.03.47 3.19 1.48 8.02-.52 10.81-14.04.33-28.2.14-42.26.08-.74-3.66-.91-7.22.05-10.86zM630.23 15.62c9.3-.22 18.69-.18 28 0 .73 3.82.75 7.01-.01 10.83-9.35.18-18.81.21-28.15-.02-.72-3.63-.95-7.22.16-10.81zM689.42 15.63c9.31-.25 18.68-.17 28-.03.47 3.19 1.48 8.02-.52 10.81-4.94.38-9.94.06-14.9.15-4.13-.09-8.35.27-12.45-.22-1.35-3.37-.97-7.26-.13-10.71zM733.48 15.63c9.32-.25 18.68-.16 28-.04.62 3.63 1.21 7.16-.17 10.71-4.37.58-8.9.15-13.31.26-4.78-.12-9.66.31-14.41-.23-1.31-3.39-.96-7.24-.11-10.7zM103.94 30.36c5.33-.42 10.72-.07 16.06-.18 3.82.09 7.76-.29 11.54.28.96 2.5 1.65 9-.62 10.63-9.02.5-18.23.16-27.28.13-.57-3.41-1.26-7.63.3-10.86zM205.2 30.31c.63 3.66 1.15 7.17-.23 10.75-4.94.56-10 .13-14.97.25-4.23-.11-8.61.34-12.8-.32-1.15-3.51-.88-7.05-.08-10.6 9.32-.4 18.74-.23 28.08-.08zM221.94 30.36c5.33-.42 10.72-.07 16.06-.18 3.81.09 7.76-.28 11.54.28.96 2.5 1.65 9-.62 10.63-9.02.5-18.23.16-27.28.13-.57-3.41-1.26-7.63.3-10.86zM323.2 30.31c.63 3.66 1.15 7.17-.23 10.75-4.94.56-10 .13-14.97.25-4.23-.11-8.61.34-12.8-.32-1.15-3.51-.88-7.05-.08-10.6 9.32-.4 18.74-.23 28.08-.08zM556.94 30.36c5.33-.42 10.72-.07 16.06-.17 13.71.08 27.45-.19 41.15.14.59 3.66 1.1 7.13-.23 10.71-2.26.37-4.64.29-6.92.3-16.79-.11-33.58.11-50.36-.12-.57-3.41-1.26-7.63.3-10.86zM658.2 30.31c.63 3.66 1.15 7.17-.23 10.75-4.94.56-10 .13-14.97.25-4.23-.11-8.62.34-12.8-.32-1.15-3.51-.88-7.05-.08-10.6 9.32-.4 18.74-.23 28.08-.08zM674.94 30.36c5.33-.42 10.72-.07 16.06-.18 3.82.09 7.76-.29 11.54.28.96 2.5 1.65 9.01-.62 10.63-9.02.5-18.23.16-27.28.13-.57-3.41-1.26-7.63.3-10.86zM776.21 30.31c.62 3.68 1.1 7.14-.21 10.75-4.95.56-10.02.13-15 .25-4.23-.11-8.62.34-12.8-.32-1.15-3.51-.88-7.05-.08-10.6 9.33-.4 18.75-.23 28.09-.08zM10 30.99c21.13.02 42.27 0 63.4.01.58 2.97 1.49 7.22-.36 9.87-1.33.15-2.67.22-4.02.21-21.01-.03-42.02-.03-63.03 0-1.57-.03-3.07-.04-4.6-.38-.98-3.01-.97-6.39-.01-9.4 2.81-.51 5.78-.27 8.62-.31zM338.71 31.12c6.42-.27 12.86-.04 19.29-.13 2.85.04 5.83-.2 8.63.32 1.02 2.98 1.07 6.4 0 9.38-2.13.47-4.46.38-6.63.4-7.11-.06-14.22.01-21.33-.06-.76-3.35-.95-6.58.04-9.91zM483.91 31.18c5.33-.43 10.74-.07 16.09-.18 3.86.09 7.85-.3 11.67.29 1.05 2.99 1.1 6.43 0 9.41-9.2.82-18.69.16-27.96.33-.62-3.29-1.23-6.67.2-9.85zM16.14 45.26c4.34-.54 8.82-.22 13.19-.17.95 3.98.95 6.97-.02 10.94-4.48.05-8.94.12-13.41-.2-.49-3.6-1-7.05.24-10.57zM46.09 45.23c3.34-.43 9.22-.43 12.54.07 1.11 3.25 1.16 7.15.01 10.39-3.68.61-9.52.63-13.19-.03-1-3.24-1-6.99-.04-10.24l.68-.19zM103.76 44.97c6.74-.23 13.5-.02 20.24-.12 2.5.04 5.2-.15 7.64.43 1.03 3.29 1.06 7.08-.06 10.35-2.11.5-4.42.37-6.58.4-7.11-.1-14.22.09-21.32-.14-.81-3.68-.99-7.27.08-10.92zM177.18 45.21c9.23-.76 18.7-.18 27.98-.28.84 3.89.83 7.02.02 10.91-6.38.31-12.79.09-19.18.17-2.88-.03-5.89.18-8.74-.3-1.15-3.32-1.1-7.15-.08-10.5zM221.76 44.97c6.74-.23 13.5-.02 20.24-.12 2.5.04 5.2-.15 7.64.43 1.03 3.29 1.05 7.08-.06 10.35-2.11.5-4.42.37-6.58.4-7.11-.1-14.22.09-21.32-.14-.81-3.68-.99-7.27.08-10.92zM295.19 45.22c9.23-.77 18.69-.18 27.97-.29.84 3.89.83 7.02.02 10.91-6.38.31-12.79.09-19.18.17-2.88-.03-5.88.19-8.73-.3-1.17-3.3-1.12-7.17-.08-10.49zM338.91 45.17c5.67-.42 11.4-.05 17.09-.17 3.49.08 7.16-.3 10.6.33 1.07 3.26 1.12 7.1 0 10.35-2.12.49-4.44.38-6.6.41-7.1-.06-14.19.01-21.29-.06-.69-3.51-1.31-7.47.2-10.86zM483.94 45.18c5.33-.43 10.72-.07 16.06-.18 3.84.09 7.83-.31 11.63.3 1.12 3.25 1.16 7.15.01 10.4-9.18.83-18.65.16-27.89.33-.7-3.52-1.3-7.44.19-10.85zM556.76 44.97c33.78-.18 67.62-.1 101.4-.04.84 3.89.83 7.02.02 10.91-7.38.33-14.79.09-22.18.16-26.43-.07-52.89.15-79.32-.11-.81-3.68-.99-7.27.08-10.92zM674.76 44.97c6.74-.23 13.5-.02 20.24-.12 2.5.04 5.2-.15 7.64.43 1.03 3.29 1.05 7.08-.06 10.35-2.11.5-4.42.37-6.58.4-7.11-.1-14.22.09-21.32-.14-.81-3.68-.99-7.27.08-10.92zM748.19 45.22c9.23-.77 18.7-.18 27.98-.29.82 3.92.82 6.98.02 10.91-6.38.32-12.8.09-19.19.17-2.88-.03-5.88.19-8.73-.3-1.17-3.3-1.12-7.17-.08-10.49zM10 59.99c21.13.02 42.27 0 63.4.01.58 2.97 1.49 7.22-.36 9.87-1.33.15-2.67.22-4.02.21-21.01-.03-42.02-.03-63.03 0-1.57-.03-3.07-.04-4.6-.38-.98-3.01-.97-6.39-.01-9.4 2.81-.51 5.78-.27 8.62-.31zM103.7 59.69c6.42-.29 12.87-.06 19.3-.13 22.49.06 44.99-.12 67.48.09.47 3.1 1.57 8.3-.63 10.88-2.92.32-5.91.14-8.85.17-22.33-.02-44.67-.01-67-.01-3.29-.03-6.64.18-9.91-.17-1.8-2.98-1.09-7.58-.39-10.83zM221.7 59.69c9.31-.25 18.67-.16 27.98-.03.67 3.63 1.28 7.23-.21 10.76-4.09.57-8.34.17-12.47.27-4.96-.1-9.97.25-14.91-.17-1.8-2.98-1.09-7.58-.39-10.83zM295.23 59.68c9.3-.22 18.68-.18 27.98 0 .53 3.35 1.29 7.69-.42 10.8-4.55.48-9.21.11-13.79.21-4.52-.11-9.13.29-13.62-.24-1.45-3.26-1.08-7.4-.15-10.77zM338.71 60.12c6.42-.27 12.86-.04 19.29-.13 2.85.04 5.83-.2 8.63.32 1.02 2.98 1.06 6.4 0 9.38-2.13.47-4.46.38-6.63.4-7.11-.06-14.22.01-21.33-.06-.76-3.35-.95-6.58.04-9.91zM483.91 60.18c6-.44 12.07-.05 18.09-.19 3.19.05 6.52-.23 9.67.3 1.05 2.99 1.1 6.43 0 9.41-7.79.83-15.84.14-23.69.38-1.38-.3-4.36.64-4.48-1.36-.75-2.69-.71-5.95.41-8.54zM556.7 59.69c9.31-.25 18.67-.16 27.98-.03.67 3.63 1.28 7.23-.21 10.76-4.09.57-8.34.17-12.47.27-4.96-.1-9.97.25-14.91-.17-1.8-2.99-1.09-7.58-.39-10.83zM600.89 59.76c4-.42 8.09-.14 12.11-.2 15.07.07 30.15-.15 45.21.12.53 3.35 1.29 7.69-.42 10.8-2.55.35-5.21.21-7.79.22-16.43-.1-32.87.15-49.3-.13-.64-3.66-1.15-7.22.19-10.81zM674.7 59.69c6.75-.29 13.54-.06 20.3-.13 27.07.08 54.16-.15 81.23.12.49 3.36 1.3 7.69-.46 10.81-1.23.15-2.48.23-3.73.22-29.01-.04-58.03-.01-87.04-.02-3.29-.03-6.64.18-9.91-.17-1.8-2.99-1.09-7.58-.39-10.83zM16.14 74.26c4.34-.54 8.82-.22 13.19-.17.95 3.98.95 6.97-.02 10.94-4.48.05-8.94.12-13.41-.2-.49-3.6-1-7.05.24-10.57zM46.09 74.23c3.32-.43 9.23-.43 12.54.07 1.11 3.25 1.16 7.15.01 10.39-3.68.61-9.52.63-13.19-.03-1-3.22-1-7-.04-10.24l.68-.19zM103.96 74.42c5.32-.42 10.71-.07 16.04-.17 3.81.08 7.74-.28 11.52.26 1 2.68 1.66 8.67-.55 10.67-9.06.43-18.26.16-27.34.1-.55-3.38-1.27-7.69.33-10.86zM221.96 74.42c5.32-.42 10.71-.07 16.04-.17 3.81.08 7.74-.28 11.52.26 1 2.68 1.66 8.67-.55 10.67-9.06.43-18.26.16-27.34.1-.55-3.38-1.27-7.69.33-10.86zM323.2 74.37c.79 3.86.77 7.01 0 10.88-7.06.27-14.14.05-21.2.15-2.23-.02-4.66.14-6.83-.43-1.11-3.42-.86-7.08-.03-10.53 9.32-.38 18.73-.22 28.06-.07zM338.75 74.12c6.41-.27 12.84-.04 19.25-.13 2.83.04 5.8-.21 8.58.33 1.28 3.68.83 7.23.07 10.95-9.31.17-18.7.17-28.01.01-.73-3.76-.97-7.45.11-11.16zM483.95 74.18c5.32-.43 10.71-.07 16.05-.18 3.84.09 7.82-.3 11.62.29.9 2.62 1.68 9.11-.64 10.88-9.03.46-18.23.16-27.29.11-.61-3.61-1.23-7.62.26-11.1zM556.96 74.42c5.32-.42 10.71-.07 16.04-.17 3.81.08 7.74-.28 11.52.26 1 2.68 1.66 8.66-.55 10.67-9.06.43-18.26.17-27.34.1-.55-3.38-1.27-7.69.33-10.86zM624 74.24c11.4.1 22.81-.15 34.2.13.79 3.86.77 7.01 0 10.88-14.24.23-28.54.17-42.78.03-.66-3.67-1.15-7.11.09-10.73 2.75-.51 5.69-.27 8.49-.31zM674.96 74.42c5.32-.42 10.71-.07 16.04-.17 3.81.08 7.74-.28 11.52.26 1 2.67 1.66 8.67-.55 10.67-9.06.43-18.26.16-27.34.1-.55-3.38-1.27-7.69.33-10.86zM776.22 74.37c.76 3.9.75 6.98-.01 10.88-7.06.27-14.14.05-21.21.15-2.23-.02-4.66.14-6.83-.43-1.11-3.42-.86-7.08-.03-10.53 9.33-.38 18.74-.22 28.08-.07zM338.78 88.12c6.73-.27 13.48-.05 20.22-.12 27.04.08 54.11-.16 81.15.12.82 3.98 1.02 7.94-.15 11.88H338.74c-.89-3.96-1.09-7.94.04-11.88zM103.78 89.04c6.4-.25 12.82-.02 19.22-.12 2.83.04 5.82-.18 8.61.38 1.16 3.49 1.01 7.23-.15 10.7h-27.75c-.84-3.68-1.04-7.31.07-10.96zM236.4 89.29c1.52-.32 3.04-.35 4.59-.37 22.46.05 44.93-.02 67.39.04.95 3.97 1 7.08 0 11.04h-71.85c-1.04-3.51-1.23-7.19-.13-10.71zM461 88.98c26.72.13 53.46-.16 80.17.15.76 3.65.94 7.25-.12 10.87h-86.62c-.81-3.6-1.22-7.11-.02-10.7 2.13-.42 4.42-.31 6.59-.32zM556.78 89.04c6.4-.25 12.82-.02 19.22-.12 2.83.04 5.82-.18 8.61.38 1.16 3.49 1.01 7.23-.15 10.7h-27.75c-.85-3.67-1.03-7.31.07-10.96zM630.05 89.21c9.33-.53 18.8-.3 28.14-.11.76 3.67.94 7.27-.13 10.9h-27.85c-.93-3.76-1.01-7.01-.16-10.79zM674.78 89.04c6.4-.25 12.82-.02 19.22-.12 2.83.04 5.82-.18 8.61.38 1.16 3.49 1.01 7.23-.15 10.7h-27.75c-.85-3.67-1.03-7.31.07-10.96zM748.05 89.21c9.33-.52 18.81-.3 28.15-.11.75 3.71.91 7.22-.12 10.9h-27.87c-.93-3.76-1.01-7.01-.16-10.79z"/></svg>
