<svg class="irccloud" version="1" fill="#0070f1" xmlns="http://www.w3.org/2000/svg" width="200" height="41.45" viewBox="0 0 1283 266"><path d="M23 13c0 .6-.8 1.3-1.7 1.7-2.6.9-6.3 4.4-6.3 6 0 .8-.7 1.6-1.5 1.9-1.3.5-1.5 13.6-1.5 109.4 0 95.8.2 108.9 1.5 109.4.8.3 1.5 1.1 1.5 1.9 0 1.6 3.7 5.1 6.3 6 .9.4 1.7 1.1 1.7 1.7 0 .7 34.8 1 108.9 1 95.9 0 109-.2 109.5-1.5.3-.8 1.1-1.5 1.9-1.5 1.6 0 5.1-3.7 6-6.2.4-1 1.1-1.8 1.7-1.8.7 0 1-34.8 1-109s-.3-109-1-109c-.6 0-1.3-.8-1.7-1.8-.9-2.5-4.4-6.2-6-6.2-.8 0-1.6-.7-1.9-1.5-.5-1.3-13.6-1.5-109.5-1.5C57.8 12 23 12.3 23 13zm118.2 64.8c.7.7 2 1.2 3 1.2 2.2 0 4.5 1.3 11.5 6.2 6.4 4.7 14.3 15.5 14.3 19.7 0 .9.5 2.2 1.2 2.9.6.6 1.4 5 1.6 9.7l.5 8.5h4.5c5.7 0 14.1 4 18.2 8.6 9.3 10.7 9.1 23.6-.6 34.3-6.6 7.4-7.4 7.5-39.4 8.1l-28.5.5-.3 2.5c-.8 6.1-5.5 12.5-11.5 15.5-3.6 1.8-14.8 2-16.5.3-1.5-1.5-1.5-2.3.1-4 2.2-2.2 4.7-8 4.7-10.8 0-3.4-1.4-4-9.6-4-8.5 0-15.8-3.4-21.4-9.8-2.2-2.6-4-5.2-4-5.8 0-.7-.7-2.5-1.5-4-1.9-3.7-1.9-13.1 0-16.8.8-1.5 1.5-3.4 1.5-4 0-1.8 11.2-12.6 13.1-12.6 2.6 0 3.6-2 4.2-8.9.3-3.5 1-6.8 1.6-7.4.6-.6 1.1-1.9 1.1-2.8 0-4.2 7.9-15 14.3-19.7 7-4.9 9.3-6.2 11.5-6.2 1 0 2.2-.4 2.8-.9 1.6-1.6 4.7-2 13.7-1.7 5.1.1 9.2.7 9.9 1.4zM829 122.4c0 77.2.1 80.6 2 86.8 2.3 7.6 5.8 11.3 12.3 13.3 4.4 1.3 12.6 1.3 16.9-.1 1.9-.6 2-1.1 1.4-6.2-1.1-9.6-1.4-10.2-5.1-10.2-6.9 0-6.5 5.2-6.5-83.2 0-71.7-.2-79.6-1.6-80.2-.9-.3-5.6-.6-10.5-.6H829v80.4zM1241.3 43.6c-.3.9-.4 15.7-.1 33 .3 17.3.3 31.4-.1 31.4-.3 0-1.9-.9-3.6-2.1-4.8-3.2-12.4-7-17.4-8.5-9.9-3-25.6-.8-35.2 4.8-19 11.2-28.9 31.3-28.9 58.8 0 35.2 13.4 56 39.4 61.5 9.2 1.9 14.5 1.7 23.1-.9 5.6-1.7 15.7-7.6 20.5-11.9 1.8-1.6 3.5-2.6 3.8-2.2.4.3 1.2 3.4 1.7 6.8l1 6.2h16l.3-88.4c.2-70.1 0-88.6-1-89.3-.7-.4-5.3-.8-10.1-.8-7.1 0-8.9.3-9.4 1.6zm-14.4 73.1c3 1.3 7.4 3.9 9.8 5.9l4.3 3.5v63.7l-5.9 5.4c-8.1 7.5-13.7 10.1-23.4 10.6s-16.5-1.9-22.4-8.1c-4.7-5-6.4-7.7-8.5-13.7-7.8-21.7-3.6-48.3 9.6-60.8 2.9-2.7 6.8-5.8 8.7-6.8 7.4-3.9 18.6-3.8 27.8.3zM601.5 54.2c-18.9 2.1-30.8 7.9-43.5 21.2-21.3 22.2-28 66.7-15.3 101.9 3.4 9.5 8.7 18.2 15.2 25 11.5 12.1 22.1 17.5 39.7 20.4 11.7 1.9 19.8 1.1 32.1-2.8 9.6-3.1 27.4-16.2 27.3-20-.1-1.7-9.4-11.9-10.9-11.9-.6 0-3.2 2-5.8 4.5-6.6 6.1-14.6 10.2-23.9 12.1-7.1 1.5-8.4 1.5-15.5.1-10.5-2.2-17.8-5.8-24-12-13-13-18.9-29.9-18.9-54 0-23.2 5.2-39.3 16.7-51.8 9.3-10 20.6-14.9 34-14.9 11.4 0 18.2 2.3 26.3 8.9 2.5 2 5.2 4.2 6.1 4.8 1.3 1.1 2.4.3 7.3-5.4l5.7-6.6-2.8-2.9c-4.3-4.5-15.1-11.2-21.8-13.6-5.1-1.7-18.2-4.5-19.6-4.1-.2.1-4 .6-8.4 1.1zM738.5 55c-16.3 3.1-24.8 7.5-35.9 18.3-10.4 10.2-17.1 23-21.2 40.3-2.6 11.3-2.7 39.7 0 50.4 5.1 20.9 12.7 34.1 25.3 44.3 10.3 8.3 17.4 11.4 31.9 14.2 9.8 1.9 13.9 1.9 23.5 0 8.9-1.7 14.4-3.7 21.4-7.8 5.3-3.2 16.5-13.4 16.5-15.1 0-.6-2.5-3.6-5.7-6.8l-5.6-5.7-5.9 5.3c-7.5 6.8-13.8 10.1-23.6 12.2-7.2 1.5-8.3 1.5-15.5 0-11.2-2.3-18-5.9-25.2-13.2-13.3-13.6-19.8-36.8-17.5-62.4 1-12.2 2.4-17.6 7.1-27.8 8.9-19.4 26.3-30.2 46.8-29 9.2.5 16.1 3.4 24.4 10.2l5.8 4.7 4.7-5.2c7.5-8.3 7.5-8.3 4.4-11-10.7-9.4-19.8-14.1-32-16.4-9.4-1.8-12.3-1.8-23.7.5zM335.5 57.2c-.3.7-.4 37.7-.3 82.3l.3 81 9.8.3 9.7.3-.2-82.3-.3-82.3-9.3-.3c-6.8-.2-9.4.1-9.7 1zM401.7 56.7c-.4.3-.7 37.5-.7 82.5V221h20l.2-34.8.3-34.7 14-.2c7.7-.2 14.5 0 15.1.5.5.4 8.8 14.4 18.4 31.2 9.5 16.8 18.4 32.2 19.7 34.2l2.3 3.8h11c7.2 0 11-.4 11-1.1 0-.9-27.1-48.4-37.2-65.2-3-5-2.9-6.7.2-6.7 3.3 0 15.4-7 20.3-11.8 9.2-8.9 13.2-20.7 12.4-36.2-.6-11.9-2.5-18.2-8.1-25.8-7.4-10-17.1-14.4-36.9-16.7-12.4-1.5-60.7-2.1-62-.8zm66.8 18.9c14.4 5 19.6 12.2 19.6 27.3 0 22.8-14.7 32.1-50.6 32.1-7.4 0-14-.3-14.9-.6-1.4-.5-1.6-4.2-1.6-30.3 0-16.4.3-30.1.8-30.6.4-.4 9.9-.5 21.2-.2 15.9.4 21.6.9 25.5 2.3zM926 97.9c-10 2.6-15.8 6-23.5 13.6-7.8 7.7-12.9 16.5-16.1 27.5-2.6 9.1-2.6 32.9-.1 41.5 2.6 8.6 8.4 19.9 13 25.1 4.3 4.9 13.2 11.3 18.9 13.7 3.7 1.6 17.3 4.4 21.8 4.6 5.1.2 18.7-3.2 25-6.2 9.6-4.6 18.9-14.3 24-24.8 4.9-10.4 7-20.1 7-32.9 0-13.2-2.1-22.7-7.5-33.6-9.4-19.2-27.8-30.6-48.8-30.3-4 0-10.1.8-13.7 1.8zm28 18.7c13.4 7.3 21 23 21 43.4 0 15.8-4.3 28.4-12.6 36.7-12.6 12.6-31.8 12.7-44.3.2-18.8-18.9-16.6-63.3 3.9-77.9 9.3-6.6 22.5-7.6 32-2.4zM1027 142.7c0 24.1.4 46.3.9 49.3 2.1 12.4 7.6 22.1 15.4 26.9 3.8 2.3 15.2 5.1 21 5.1 10.7 0 22.4-5.4 32.3-14.7 3.7-3.5 7-6.3 7.4-6.3.4 0 1.2 3.9 1.6 8.8l.9 8.7 8.3.3 8.2.3V98.9l-9.7.3-9.8.3-.5 43.2-.5 43.2-6.9 7c-11.4 11.5-22.4 15.3-33.3 11.7-6.3-2.1-9.8-5.7-12.5-13.2-2.2-5.7-2.3-7.4-2.6-49.2l-.3-43.2H1027v43.7z"/></svg>