<svg class="irssi" xmlns="http://www.w3.org/2000/svg" width="41.45" height="41.45" version="1" viewBox="0 0 250 250"><path d="M142.233 227.08c71.312-21.776 50.899-76.816 61.352-82.72-5.526 5.707-12.158 15.284-16.545 17.004 1.833-11.32 4.504-23.774-.919-51.24-4.033 11.039-5.747 24.687-19.071 25.275-1.223-35.16.596-41.65-1.839-47.564L154.182 71.98l-.23 21.37c-3.446 10.446-6.204 16.023-9.65 12.407l-2.298-25.275c-13.22-27.293-21.148-42.76-20.91-41.13-5.724-11.387-4.391-17.256-6.664-24.587-1.865 9.221-4.806 15.574-3.217 34.007 2.794 12.208 7.518 25.189 7.583 36.305-12.332-7.944-26.042-20.1-38.373-20.91 9.307 8.421 14.587 18.618 11.03 31.94l-3.907 25.046-24.127-19.991c8.628 22.38 6.406 39.168 2.068 52.16-7.942-4.839-15.41-12.992-23.897-14.017 10.602 41.309 22.074 67.311 36.535 76.517 5.944 4.021 15.467 7.546 34.237 12.178-19.81-17.475-34.248-33.994-38.143-49.632 4.902.376 11.412 2.939 16.314 5.744 1.324-11.97-.231-27.78 4.366-35.386 2.726 14.825 7.238 26.752 14.246 34.237-.733-18.79-3.5-42.966.92-45.726 5.36 16.86 10.722 19.285 16.084 21.14.174-6.128 1.212-12.255-.23-18.383-4.815-15.197-4.557-16.22-4.595-20.45 7.381 9.285 13.026 17.016 16.084 27.344l-.69 26.31c3.212-1.38 3.837-2.988 3.677-2.988l9.191-18.727 3.907-3.446c-2.002 12.561-6.69 25.122 1.149 37.684l9.42-17.693c.079 17.919-6.593 37.458-21.829 59.053z" fill-rule="evenodd" stroke="#000"/><path fill="#fff" d="M-3.676-23.838h.919v19.301h-.919z"/></svg>