<svg class="mirc" xmlns="http://www.w3.org/2000/svg" width="41.45" height="41.45" viewBox="0 0 133.333 133.333"><g stroke="#000"><path d="M13.656 6.438v57.28H39V33.063c1-.498 2.595-.94 5.5-.843 5 .166 4.312 2.812 4.313 2.812v29h25.5V32.22c.925-.164 2.041-.269 3.53-.219 5 .167 4.313 2.844 4.313 2.844v29h25.5v-33.5s1.291-20.634-17-23.5c-16.494-2.585-20 7.812-20 7.812v1c-2.46-4.002-6.546-7.56-13.344-8.625C46.153 5.282 41.206 9.411 39 12.313V6.436H13.656z" fill="#043292" stroke-width="3"/><path d="M117.508 109.568c-6.557 9.125-18.58 14.11-29.631 11.496-12.035-2.57-21.302-13.268-23.43-25.205-2.629-12.865 2.749-27.252 13.915-34.442 9.245-6.213 22.137-6.213 31.343.079 5.285 3.481 9.47 8.585 11.81 14.469-7.012 19.589-25.859 17.178-34.371 10.434 5.51 25.779 20.187 14.64 30.364 23.17z" fill="#fff508" stroke-width="3"/><path transform="matrix(1.12667 -.6895 .66908 1.21717 50.988 -22.907)" d="M-3.5 79.917a.917 3.417 0 1 1-1.833 0 .917 3.417 0 1 1 1.833 0z" fill="#ffff08" stroke-width="2.216"/><path transform="matrix(1.12667 -.6895 .66908 1.21717 58.507 -26.933)" d="M-3.5 79.917a.917 3.417 0 1 1-1.833 0 .917 3.417 0 1 1 1.833 0z" fill="#ffff08" stroke-width="2.216"/><g fill="#e10000" stroke-width="3"><path d="M5.088 59.717h29.991v22.399H5.088zM5.004 82.873h29.991v35.921H5.004zM35.469 59.531V86.47h.187v32.375h26.688V86.469h17V59.53H35.469z"/></g></g></svg>