<svg enable-background="new 0 0 838 276" viewBox="0 0 838 276" xmlns="http://www.w3.org/2000/svg"><path d="m319.5 100v76.1c0 .7-.4 1.3-.9 1.6l-65.8 37.7c-.6.3-1.3.3-1.8 0l-66.1-38c-.6-.3-.9-.9-.9-1.6v-66.8c0-.7-.4-1.3-.9-1.6l-18.2-10.4c-1.2-.7-2.8.2-2.8 1.6v84.5c0 3.9 2.1 7.6 5.5 9.5l78.7 45.1c3.4 2 7.6 2 11.1 0l78.4-44.9c3.4-2 5.5-5.6 5.5-9.5v-90.6c0-3.9-2.1-7.6-5.5-9.5l-78.4-44.9c-3.4-2-7.6-2-11.1 0l-36.3 20.8c-1.2.7-1.2 2.5 0 3.2l18.2 10.4c.6.3 1.3.3 1.8 0l20.9-12c.6-.3 1.3-.3 1.8 0l65.8 37.7c.7.3 1 .9 1 1.6z" fill="#ff9e18"/><ellipse cx="288.9" cy="138.4" fill="#415364" rx="12.4" ry="12.4"/><ellipse cx="249.3" cy="138.4" fill="#415364" rx="12.4" ry="12.4"/><path d="m64 176v-76.1c0-.7.4-1.3.9-1.6l65.8-37.7c.6-.3 1.3-.3 1.8 0l66.1 38c.6.3.9.9.9 1.6v66.8c0 .7.4 1.3.9 1.6l18.1 10.4c1.2.7 2.8-.2 2.8-1.6v-84.5c0-3.9-2.1-7.6-5.5-9.5l-78.7-45.1c-3.4-2-7.6-2-11.1 0l-78.3 44.8c-3.4 2-5.5 5.6-5.5 9.5v90.6c0 3.9 2.1 7.6 5.5 9.5l78.4 44.9c3.4 2 7.6 2 11.1 0l36.3-20.8c1.2-.7 1.2-2.5 0-3.2l-18.2-10.4c-.6-.3-1.3-.3-1.8 0l-20.9 12c-.6.3-1.3.3-1.8 0l-65.8-37.7c-.7-.2-1-.8-1-1.5z" fill="#415364"/><ellipse cx="94.6" cy="137.6" fill="#ff9e18" rx="12.4" ry="12.4"/><ellipse cx="134.2" cy="137.6" fill="#ff9e18" rx="12.4" ry="12.4"/><path d="m362.9 121.4h15.2v40.8h11.5v-40.8h15.3v-9.5h-42z" fill="#ff9e18"/><path d="m446.5 132h-22.1v-20.1h-11.2v50.4h11.2v-20.9h22.1v20.9h11.2v-50.4h-11.2z" fill="#ff9e18"/><path d="m500.7 121v-9.1h-34.5v50.4h34.5v-9.1h-23.3v-11.9h21.8v-9.2h-21.8v-11.1z" fill="#ff9e18"/><g fill="#415364"><path d="m520.6 111.9h-11.4v50.4h33.3v-9.5h-21.9z"/><path d="m585.8 115c-3.8-2.1-8.4-3.1-13.6-3.1s-9.8 1-13.6 3.1c-3.9 2.1-6.9 5-9 8.8s-3.1 8.3-3.1 13.4 1.1 9.6 3.1 13.4c2.1 3.8 5.1 6.8 9 8.9s8.4 3.1 13.6 3.1 9.8-1 13.6-3.1 6.8-5 8.9-8.9c2.1-3.8 3.1-8.3 3.1-13.4s-1-9.6-3.1-13.4-5.1-6.7-8.9-8.8zm0 22.2c0 5.3-1.2 9.4-3.6 12.2s-5.7 4.2-10 4.2-7.6-1.4-10-4.2-3.6-6.9-3.6-12.2 1.2-9.4 3.6-12.1 5.7-4.1 10-4.1c4.2 0 7.6 1.4 10 4.1s3.6 6.8 3.6 12.1z"/><path d="m637.7 141.6c0 3.8-.9 6.7-2.6 8.7s-4.3 2.9-7.6 2.9-5.9-1-7.6-2.9c-1.8-2-2.6-4.9-2.6-8.7v-29.6h-11.3v29.1c0 6.9 1.8 12.2 5.5 15.8 3.6 3.6 9 5.4 16 5.4 6.9 0 12.3-1.8 16-5.4s5.5-8.9 5.5-15.8v-29.1h-11.3z"/><path d="m690.1 142.9-24.3-31h-8.6v50.4h10.9v-31l24.2 30.9.1.1h8.6v-50.4h-10.9z"/><path d="m733.4 142.4h9.6v10.1c-2.6.6-5.2.9-7.8.9-9.7 0-14.5-5.3-14.5-16.3 0-10.8 4.5-16 13.8-16 2.5 0 4.8.4 6.9 1.1s4.3 1.9 6.6 3.5l.3.2 3.7-8.2-.2-.2c-2-1.7-4.6-3.1-7.7-4.1s-6.4-1.4-10-1.4c-5 0-9.5 1-13.3 3.1-3.8 2-6.7 5-8.8 8.7-2.1 3.8-3.1 8.2-3.1 13.3 0 5.2 1 9.7 3.1 13.5s5.1 6.7 8.9 8.7 8.4 3 13.6 3c3.4 0 6.7-.3 9.9-1 3.2-.6 6-1.5 8.4-2.7l.2-.1v-24.3h-19.9v8.2z"/><path d="m795.8 121v-9.1h-33.9v50.5h33.9v-9.2h-22.9v-11.9h21.5v-9.2h-21.5v-11.1z"/></g></svg>