<svg class="weechat" xmlns="http://www.w3.org/2000/svg" xmlns:xlink="http://www.w3.org/1999/xlink" height="41.45" width="41.45" viewBox="0 0 522 522"><defs><linearGradient id="b"><stop offset="0" stop-color="#0b11bd"/><stop offset=".756" stop-color="#609fe0"/><stop offset="1" stop-color="#63a4e1"/></linearGradient><linearGradient id="a"><stop offset="0" stop-color="#81cd71"/><stop offset="1" stop-color="#098c2b"/></linearGradient><linearGradient gradientUnits="userSpaceOnUse" y2="417.738" x2="611.877" y1="477.168" x1="174.152" id="c" xlink:href="#a"/><linearGradient gradientUnits="userSpaceOnUse" y2="461.742" x2="347.252" y1="691.316" x1="347.252" id="d" xlink:href="#b"/></defs><g fill-rule="evenodd"><path d="M597.006 356.488c-66.038.122-207.97 1.356-286.826 9.293-105.143 10.583-119.185 67.592-136.028 111.387l-.33.867 114.448-5.398c10.47-36.867 31.895-41.837 48.087-44.104 15.525-2.174 255.307-10.127 275.52-10.795l20.72-61.207s-13.579-.083-35.591-.043z" fill="url(#c)" transform="translate(-110.753 -270.609)"/><path d="M601.02 449.809l-96.353 4.53L444.8 621.6l-52.647 2.476 59.232-167.23-104.132 4.896-63.367 172.166s-13.297.981-23.912 1.594c-26.596 1.535-23.617-21.154-20.59-30.555 3.027-9.4 36.648-100.639 36.648-100.639l-114.096 5.365c-18.295 49.07-42.45 115.477-42.45 115.477s-45.06 91.043 71.39 80.784c116.45-10.26 334.31-32.125 334.31-32.125z" fill="url(#d)" transform="translate(-110.753 -270.609)"/></g></svg>